<svg id="svg" version="1.1" xmlns="http://www.w3.org/2000/svg" xmlns:xlink="http://www.w3.org/1999/xlink" width="400" height="400" viewBox="0, 0, 400,400"><g id="svgg"><path id="path0" d="M195.200 33.582 C 195.200 33.801,192.356 34.043,188.500 34.150 C 179.812 34.392,175.114 34.858,174.900 35.500 C 174.790 35.831,173.864 36.000,172.167 36.000 C 170.722 36.000,169.600 36.175,169.600 36.400 C 169.600 36.620,168.610 36.800,167.400 36.800 C 166.190 36.800,165.200 36.980,165.200 37.200 C 165.200 37.420,164.401 37.600,163.424 37.600 C 162.447 37.600,161.536 37.780,161.400 38.000 C 161.264 38.220,160.364 38.400,159.400 38.400 C 158.436 38.400,157.549 38.560,157.428 38.755 C 157.307 38.950,156.577 39.228,155.804 39.373 C 155.032 39.518,154.400 39.808,154.400 40.018 C 154.400 40.228,153.691 40.400,152.824 40.400 C 151.957 40.400,151.136 40.580,151.000 40.800 C 150.864 41.020,150.223 41.200,149.576 41.200 C 148.929 41.200,148.400 41.380,148.400 41.600 C 148.400 41.820,147.871 42.000,147.224 42.000 C 146.577 42.000,145.936 42.180,145.800 42.400 C 145.664 42.620,145.135 42.800,144.625 42.800 C 144.115 42.800,143.474 43.070,143.200 43.400 C 142.926 43.730,142.364 44.000,141.951 44.000 C 141.538 44.000,141.200 44.180,141.200 44.400 C 141.200 44.620,140.570 44.800,139.800 44.800 C 139.030 44.800,138.400 44.980,138.400 45.200 C 138.400 45.420,138.040 45.600,137.600 45.600 C 137.160 45.600,136.800 45.780,136.800 46.000 C 136.800 46.220,136.378 46.400,135.861 46.400 C 134.744 46.400,132.400 47.503,132.400 48.029 C 132.400 48.233,131.950 48.400,131.400 48.400 C 130.850 48.400,130.400 48.580,130.400 48.800 C 130.400 49.020,130.088 49.200,129.708 49.200 C 128.623 49.200,123.621 51.743,123.610 52.300 C 123.605 52.575,123.150 52.800,122.600 52.800 C 122.050 52.800,121.600 52.980,121.600 53.200 C 121.600 53.420,121.240 53.600,120.800 53.600 C 120.360 53.600,120.000 53.780,120.000 54.000 C 120.000 54.220,119.758 54.400,119.461 54.400 C 118.734 54.400,116.400 55.585,116.400 55.955 C 116.400 56.117,115.770 56.498,115.000 56.800 C 114.230 57.102,113.600 57.496,113.600 57.675 C 113.600 57.854,113.280 58.000,112.888 58.000 C 112.497 58.000,111.917 58.360,111.600 58.800 C 111.283 59.240,110.728 59.600,110.368 59.600 C 110.007 59.600,109.374 60.050,108.961 60.600 C 108.548 61.150,107.893 61.600,107.505 61.600 C 107.117 61.600,106.800 61.780,106.800 62.000 C 106.800 62.220,106.530 62.400,106.200 62.400 C 105.870 62.400,105.600 62.536,105.600 62.702 C 105.600 62.869,105.060 63.244,104.400 63.536 C 103.740 63.828,103.200 64.322,103.200 64.634 C 103.200 64.945,102.840 65.200,102.400 65.200 C 101.960 65.200,101.600 65.380,101.600 65.600 C 101.600 65.820,101.412 66.000,101.182 66.000 C 100.952 66.000,100.330 66.405,99.801 66.900 C 98.337 68.269,97.660 68.800,97.377 68.800 C 97.236 68.800,96.617 69.340,96.000 70.000 C 95.383 70.660,94.662 71.200,94.396 71.200 C 94.131 71.200,92.955 72.190,91.783 73.400 C 90.611 74.610,89.552 75.600,89.429 75.600 C 88.604 75.600,75.600 88.604,75.600 89.429 C 75.600 89.552,74.610 90.611,73.400 91.783 C 72.190 92.955,71.200 94.131,71.200 94.396 C 71.200 94.662,70.660 95.383,70.000 96.000 C 69.340 96.617,68.800 97.236,68.800 97.377 C 68.800 97.660,68.269 98.337,66.900 99.801 C 66.405 100.330,66.000 100.952,66.000 101.182 C 66.000 101.412,65.820 101.600,65.600 101.600 C 65.380 101.600,65.200 101.960,65.200 102.400 C 65.200 102.840,64.945 103.200,64.634 103.200 C 64.322 103.200,63.828 103.740,63.536 104.400 C 63.244 105.060,62.869 105.600,62.702 105.600 C 62.536 105.600,62.400 105.870,62.400 106.200 C 62.400 106.530,62.220 106.800,62.000 106.800 C 61.780 106.800,61.600 107.117,61.600 107.505 C 61.600 107.893,61.150 108.548,60.600 108.961 C 60.050 109.374,59.600 110.007,59.600 110.368 C 59.600 110.728,59.240 111.283,58.800 111.600 C 58.360 111.917,58.000 112.497,58.000 112.888 C 58.000 113.280,57.854 113.600,57.675 113.600 C 57.496 113.600,57.102 114.230,56.800 115.000 C 56.498 115.770,56.117 116.400,55.955 116.400 C 55.585 116.400,54.400 118.734,54.400 119.461 C 54.400 119.758,54.220 120.000,54.000 120.000 C 53.780 120.000,53.600 120.360,53.600 120.800 C 53.600 121.240,53.441 121.600,53.247 121.600 C 53.052 121.600,52.780 121.915,52.642 122.300 C 52.504 122.685,51.673 124.332,50.796 125.960 C 49.918 127.588,49.200 129.253,49.200 129.660 C 49.200 130.067,49.020 130.400,48.800 130.400 C 48.580 130.400,48.400 130.850,48.400 131.400 C 48.400 131.950,48.233 132.400,48.029 132.400 C 47.552 132.400,46.676 134.165,45.976 136.534 C 45.673 137.560,45.285 138.400,45.113 138.400 C 44.941 138.400,44.800 139.030,44.800 139.800 C 44.800 140.570,44.620 141.200,44.400 141.200 C 44.180 141.200,44.000 141.538,44.000 141.951 C 44.000 142.364,43.730 142.926,43.400 143.200 C 43.070 143.474,42.800 144.115,42.800 144.625 C 42.800 145.135,42.620 145.664,42.400 145.800 C 42.180 145.936,42.000 146.577,42.000 147.224 C 42.000 147.871,41.820 148.400,41.600 148.400 C 41.380 148.400,41.200 148.929,41.200 149.576 C 41.200 150.223,41.020 150.864,40.800 151.000 C 40.580 151.136,40.400 151.879,40.400 152.652 C 40.400 153.425,40.130 154.327,39.800 154.657 C 39.470 154.987,39.200 155.684,39.200 156.205 C 39.200 156.726,39.020 157.264,38.800 157.400 C 38.580 157.536,38.400 158.346,38.400 159.200 C 38.400 160.054,38.220 160.864,38.000 161.000 C 37.780 161.136,37.600 162.137,37.600 163.224 C 37.600 164.311,37.420 165.200,37.200 165.200 C 36.980 165.200,36.800 166.190,36.800 167.400 C 36.800 168.610,36.620 169.600,36.400 169.600 C 36.178 169.600,36.000 170.656,36.000 171.967 C 36.000 173.505,35.825 174.392,35.500 174.500 C 33.199 175.265,33.199 224.735,35.500 225.500 C 35.825 225.608,36.000 226.495,36.000 228.033 C 36.000 229.344,36.178 230.400,36.400 230.400 C 36.620 230.400,36.800 231.390,36.800 232.600 C 36.800 233.810,36.980 234.800,37.200 234.800 C 37.420 234.800,37.600 235.689,37.600 236.776 C 37.600 237.863,37.780 238.864,38.000 239.000 C 38.220 239.136,38.400 239.946,38.400 240.800 C 38.400 241.654,38.580 242.464,38.800 242.600 C 39.020 242.736,39.200 243.274,39.200 243.795 C 39.200 244.316,39.470 245.013,39.800 245.343 C 40.130 245.673,40.400 246.575,40.400 247.348 C 40.400 248.121,40.580 248.864,40.800 249.000 C 41.020 249.136,41.200 249.777,41.200 250.424 C 41.200 251.071,41.380 251.600,41.600 251.600 C 41.820 251.600,42.000 252.129,42.000 252.776 C 42.000 253.423,42.180 254.064,42.400 254.200 C 42.620 254.336,42.800 254.865,42.800 255.375 C 42.800 255.885,43.070 256.526,43.400 256.800 C 43.730 257.074,44.000 257.636,44.000 258.049 C 44.000 258.462,44.180 258.800,44.400 258.800 C 44.620 258.800,44.800 259.430,44.800 260.200 C 44.800 260.970,44.941 261.600,45.113 261.600 C 45.285 261.600,45.673 262.440,45.976 263.466 C 46.676 265.835,47.552 267.600,48.029 267.600 C 48.233 267.600,48.400 268.050,48.400 268.600 C 48.400 269.150,48.580 269.600,48.800 269.600 C 49.020 269.600,49.200 269.933,49.200 270.340 C 49.200 270.747,49.918 272.412,50.796 274.040 C 51.673 275.668,52.504 277.315,52.642 277.700 C 52.780 278.085,53.052 278.400,53.247 278.400 C 53.441 278.400,53.600 278.760,53.600 279.200 C 53.600 279.640,53.780 280.000,54.000 280.000 C 54.220 280.000,54.400 280.242,54.400 280.539 C 54.400 281.266,55.585 283.600,55.955 283.600 C 56.117 283.600,56.498 284.230,56.800 285.000 C 57.102 285.770,57.496 286.400,57.675 286.400 C 57.854 286.400,58.000 286.720,58.000 287.112 C 58.000 287.503,58.360 288.083,58.800 288.400 C 59.240 288.717,59.600 289.272,59.600 289.632 C 59.600 289.993,60.050 290.626,60.600 291.039 C 61.150 291.452,61.600 292.107,61.600 292.495 C 61.600 292.883,61.780 293.200,62.000 293.200 C 62.220 293.200,62.400 293.470,62.400 293.800 C 62.400 294.130,62.536 294.400,62.702 294.400 C 62.869 294.400,63.244 294.940,63.536 295.600 C 63.828 296.260,64.322 296.800,64.634 296.800 C 64.945 296.800,65.200 297.160,65.200 297.600 C 65.200 298.040,65.380 298.400,65.600 298.400 C 65.820 298.400,66.000 298.588,66.000 298.818 C 66.000 299.048,66.405 299.670,66.900 300.199 C 68.269 301.663,68.800 302.340,68.800 302.623 C 68.800 302.764,69.340 303.383,70.000 304.000 C 70.660 304.617,71.200 305.338,71.200 305.604 C 71.200 305.869,72.190 307.045,73.400 308.217 C 74.610 309.389,75.600 310.454,75.600 310.585 C 75.600 311.380,88.633 324.400,89.429 324.400 C 89.552 324.400,90.611 325.390,91.783 326.600 C 92.955 327.810,94.131 328.800,94.396 328.800 C 94.662 328.800,95.383 329.340,96.000 330.000 C 96.617 330.660,97.236 331.200,97.377 331.200 C 97.660 331.200,98.337 331.731,99.801 333.100 C 100.330 333.595,100.952 334.000,101.182 334.000 C 101.412 334.000,101.600 334.180,101.600 334.400 C 101.600 334.620,101.960 334.800,102.400 334.800 C 102.840 334.800,103.200 335.055,103.200 335.366 C 103.200 335.678,103.740 336.172,104.400 336.464 C 105.060 336.756,105.600 337.131,105.600 337.298 C 105.600 337.464,105.870 337.600,106.200 337.600 C 106.530 337.600,106.800 337.780,106.800 338.000 C 106.800 338.220,107.117 338.400,107.505 338.400 C 107.893 338.400,108.548 338.850,108.961 339.400 C 109.374 339.950,110.007 340.400,110.368 340.400 C 110.728 340.400,111.283 340.760,111.600 341.200 C 111.917 341.640,112.497 342.000,112.888 342.000 C 113.280 342.000,113.600 342.180,113.600 342.400 C 113.600 342.620,114.010 342.800,114.512 342.800 C 115.013 342.800,115.688 343.169,116.012 343.619 C 116.638 344.492,118.568 345.600,119.461 345.600 C 119.758 345.600,120.000 345.780,120.000 346.000 C 120.000 346.220,120.360 346.400,120.800 346.400 C 121.240 346.400,121.600 346.580,121.600 346.800 C 121.600 347.020,122.050 347.200,122.600 347.200 C 123.222 347.200,123.600 347.427,123.600 347.800 C 123.600 348.133,123.956 348.400,124.400 348.400 C 124.840 348.400,125.201 348.535,125.203 348.700 C 125.207 349.106,127.186 350.000,128.080 350.000 C 128.476 350.000,128.800 350.180,128.800 350.400 C 128.800 350.620,129.160 350.800,129.600 350.800 C 130.040 350.800,130.400 350.980,130.400 351.200 C 130.400 351.420,130.850 351.600,131.400 351.600 C 131.950 351.600,132.400 351.767,132.400 351.971 C 132.400 352.497,134.744 353.600,135.861 353.600 C 136.378 353.600,136.800 353.780,136.800 354.000 C 136.800 354.220,137.149 354.400,137.576 354.400 C 138.003 354.400,138.464 354.580,138.600 354.800 C 138.736 355.020,139.377 355.200,140.024 355.200 C 140.671 355.200,141.200 355.380,141.200 355.600 C 141.200 355.820,141.573 356.000,142.029 356.000 C 142.484 356.000,143.127 356.270,143.457 356.600 C 143.787 356.930,144.394 357.200,144.805 357.200 C 145.216 357.200,145.664 357.380,145.800 357.600 C 145.936 357.820,146.577 358.000,147.224 358.000 C 147.871 358.000,148.400 358.180,148.400 358.400 C 148.400 358.620,148.929 358.800,149.576 358.800 C 150.223 358.800,150.864 358.980,151.000 359.200 C 151.136 359.420,151.957 359.600,152.824 359.600 C 153.691 359.600,154.400 359.766,154.400 359.968 C 154.400 360.171,154.985 360.462,155.700 360.614 C 156.415 360.767,157.180 361.031,157.400 361.201 C 157.792 361.504,159.492 361.807,163.300 362.254 C 164.345 362.377,165.200 362.640,165.200 362.839 C 165.200 363.037,166.190 363.200,167.400 363.200 C 168.610 363.200,169.600 363.380,169.600 363.600 C 169.600 363.825,170.722 364.000,172.167 364.000 C 173.864 364.000,174.790 364.169,174.900 364.500 C 175.113 365.138,179.782 365.605,188.400 365.851 C 192.029 365.954,195.170 366.210,195.380 366.420 C 195.876 366.916,204.124 366.916,204.620 366.420 C 204.830 366.210,207.971 365.953,211.600 365.849 C 220.472 365.593,225.292 365.125,225.500 364.500 C 225.608 364.175,226.495 364.000,228.033 364.000 C 229.344 364.000,230.400 363.822,230.400 363.600 C 230.400 363.380,231.390 363.200,232.600 363.200 C 233.810 363.200,234.800 363.020,234.800 362.800 C 234.800 362.580,235.689 362.400,236.776 362.400 C 237.863 362.400,238.852 362.239,238.974 362.042 C 239.095 361.845,239.871 361.594,240.697 361.483 C 243.117 361.159,245.375 360.475,245.526 360.021 C 245.603 359.790,246.361 359.600,247.210 359.600 C 248.058 359.600,248.864 359.420,249.000 359.200 C 249.136 358.980,249.777 358.800,250.424 358.800 C 251.071 358.800,251.600 358.620,251.600 358.400 C 251.600 358.180,252.129 358.000,252.776 358.000 C 253.423 358.000,254.064 357.820,254.200 357.600 C 254.336 357.380,254.865 357.200,255.375 357.200 C 255.885 357.200,256.526 356.930,256.800 356.600 C 257.074 356.270,257.636 356.000,258.049 356.000 C 258.462 356.000,258.800 355.820,258.800 355.600 C 258.800 355.380,259.430 355.200,260.200 355.200 C 260.970 355.200,261.600 355.059,261.600 354.887 C 261.600 354.715,262.440 354.327,263.466 354.024 C 265.835 353.324,267.600 352.448,267.600 351.971 C 267.600 351.767,268.050 351.600,268.600 351.600 C 269.150 351.600,269.600 351.420,269.600 351.200 C 269.600 350.980,270.050 350.800,270.600 350.800 C 271.150 350.800,271.600 350.620,271.600 350.400 C 271.600 350.180,271.915 349.984,272.300 349.964 C 272.685 349.944,273.900 349.405,275.000 348.767 C 276.100 348.128,277.315 347.494,277.700 347.356 C 278.085 347.219,278.400 346.948,278.400 346.753 C 278.400 346.559,278.760 346.400,279.200 346.400 C 279.640 346.400,280.000 346.220,280.000 346.000 C 280.000 345.780,280.276 345.600,280.614 345.600 C 281.181 345.600,283.135 344.538,283.600 343.977 C 283.710 343.844,284.385 343.481,285.100 343.170 C 285.815 342.859,286.400 342.469,286.400 342.302 C 286.400 342.136,286.720 342.000,287.112 342.000 C 287.503 342.000,288.083 341.640,288.400 341.200 C 288.717 340.760,289.252 340.397,289.588 340.393 C 289.925 340.389,290.624 339.939,291.142 339.393 C 291.660 338.847,292.335 338.400,292.642 338.400 C 292.949 338.400,293.200 338.220,293.200 338.000 C 293.200 337.780,293.470 337.600,293.800 337.600 C 294.130 337.600,294.400 337.464,294.400 337.298 C 294.400 337.131,294.940 336.756,295.600 336.464 C 296.260 336.172,296.800 335.678,296.800 335.366 C 296.800 335.055,297.160 334.800,297.600 334.800 C 298.040 334.800,298.400 334.620,298.400 334.400 C 298.400 334.180,298.588 334.000,298.818 334.000 C 299.048 334.000,299.670 333.595,300.199 333.100 C 301.663 331.731,302.340 331.200,302.623 331.200 C 302.764 331.200,303.383 330.660,304.000 330.000 C 304.617 329.340,305.311 328.800,305.543 328.800 C 305.775 328.800,306.963 327.810,308.183 326.600 C 309.402 325.390,310.515 324.400,310.654 324.400 C 310.794 324.400,311.325 323.950,311.835 323.400 C 312.345 322.850,312.869 322.400,312.999 322.400 C 313.521 322.400,324.400 311.137,324.400 310.597 C 324.400 310.489,325.390 309.402,326.600 308.183 C 327.810 306.963,328.800 305.775,328.800 305.543 C 328.800 305.311,329.340 304.617,330.000 304.000 C 330.660 303.383,331.200 302.764,331.200 302.623 C 331.200 302.340,331.731 301.663,333.100 300.199 C 333.595 299.670,334.000 299.048,334.000 298.818 C 334.000 298.588,334.180 298.400,334.400 298.400 C 334.620 298.400,334.800 298.040,334.800 297.600 C 334.800 297.160,335.055 296.800,335.366 296.800 C 335.678 296.800,336.172 296.260,336.464 295.600 C 336.756 294.940,337.131 294.400,337.298 294.400 C 337.464 294.400,337.600 294.130,337.600 293.800 C 337.600 293.470,337.780 293.200,338.000 293.200 C 338.220 293.200,338.400 292.883,338.400 292.495 C 338.400 292.107,338.850 291.452,339.400 291.039 C 339.950 290.626,340.400 289.993,340.400 289.632 C 340.400 289.272,340.760 288.717,341.200 288.400 C 341.640 288.083,342.000 287.503,342.000 287.112 C 342.000 286.720,342.180 286.400,342.400 286.400 C 342.620 286.400,342.800 285.990,342.800 285.488 C 342.800 284.987,343.169 284.312,343.619 283.988 C 344.492 283.362,345.600 281.432,345.600 280.539 C 345.600 280.242,345.780 280.000,346.000 280.000 C 346.220 280.000,346.400 279.640,346.400 279.200 C 346.400 278.760,346.580 278.400,346.800 278.400 C 347.020 278.400,347.200 277.950,347.200 277.400 C 347.200 276.850,347.425 276.395,347.700 276.390 C 348.257 276.379,350.800 271.377,350.800 270.292 C 350.800 269.912,350.980 269.600,351.200 269.600 C 351.420 269.600,351.600 269.150,351.600 268.600 C 351.600 268.050,351.767 267.600,351.971 267.600 C 352.444 267.600,353.600 265.302,353.600 264.362 C 353.600 263.969,353.780 263.536,354.000 263.400 C 354.220 263.264,354.400 262.803,354.400 262.376 C 354.400 261.949,354.580 261.600,354.800 261.600 C 355.020 261.600,355.200 260.970,355.200 260.200 C 355.200 259.430,355.380 258.800,355.600 258.800 C 355.820 258.800,356.000 258.462,356.000 258.049 C 356.000 257.636,356.270 257.074,356.600 256.800 C 356.930 256.526,357.200 255.885,357.200 255.375 C 357.200 254.865,357.380 254.336,357.600 254.200 C 357.820 254.064,358.000 253.423,358.000 252.776 C 358.000 252.129,358.180 251.600,358.400 251.600 C 358.620 251.600,358.800 251.071,358.800 250.424 C 358.800 249.777,358.980 249.136,359.200 249.000 C 359.420 248.864,359.600 248.043,359.600 247.176 C 359.600 246.309,359.743 245.600,359.918 245.600 C 360.318 245.600,361.600 241.492,361.600 240.208 C 361.600 239.679,361.780 239.136,362.000 239.000 C 362.220 238.864,362.400 237.863,362.400 236.776 C 362.400 235.689,362.580 234.800,362.800 234.800 C 363.020 234.800,363.200 233.810,363.200 232.600 C 363.200 231.390,363.380 230.400,363.600 230.400 C 363.825 230.400,364.000 229.278,364.000 227.833 C 364.000 226.136,364.169 225.210,364.500 225.100 C 366.808 224.331,366.808 175.669,364.500 174.900 C 364.169 174.790,364.000 173.864,364.000 172.167 C 364.000 170.722,363.825 169.600,363.600 169.600 C 363.380 169.600,363.200 168.610,363.200 167.400 C 363.200 166.190,363.020 165.200,362.800 165.200 C 362.580 165.200,362.400 164.311,362.400 163.224 C 362.400 162.137,362.220 161.136,362.000 161.000 C 361.780 160.864,361.600 160.054,361.600 159.200 C 361.600 158.346,361.440 157.549,361.245 157.428 C 361.050 157.307,360.772 156.577,360.627 155.804 C 360.482 155.032,360.192 154.400,359.982 154.400 C 359.772 154.400,359.600 153.691,359.600 152.824 C 359.600 151.957,359.420 151.136,359.200 151.000 C 358.980 150.864,358.800 150.223,358.800 149.576 C 358.800 148.929,358.620 148.400,358.400 148.400 C 358.180 148.400,358.000 147.871,358.000 147.224 C 358.000 146.577,357.820 145.936,357.600 145.800 C 357.380 145.664,357.200 145.135,357.200 144.625 C 357.200 144.115,356.930 143.474,356.600 143.200 C 356.270 142.926,356.000 142.364,356.000 141.951 C 356.000 141.538,355.820 141.200,355.600 141.200 C 355.380 141.200,355.200 140.570,355.200 139.800 C 355.200 139.030,355.020 138.400,354.800 138.400 C 354.580 138.400,354.400 138.051,354.400 137.624 C 354.400 137.197,354.220 136.736,354.000 136.600 C 353.780 136.464,353.600 136.031,353.600 135.638 C 353.600 134.698,352.444 132.400,351.971 132.400 C 351.767 132.400,351.600 131.950,351.600 131.400 C 351.600 130.850,351.420 130.400,351.200 130.400 C 350.980 130.400,350.800 130.067,350.800 129.660 C 350.800 129.253,350.082 127.588,349.204 125.960 C 348.327 124.332,347.496 122.685,347.358 122.300 C 347.220 121.915,346.948 121.600,346.753 121.600 C 346.559 121.600,346.400 121.240,346.400 120.800 C 346.400 120.360,346.220 120.000,346.000 120.000 C 345.780 120.000,345.600 119.758,345.600 119.461 C 345.600 118.734,344.415 116.400,344.045 116.400 C 343.883 116.400,343.502 115.770,343.200 115.000 C 342.898 114.230,342.504 113.600,342.325 113.600 C 342.146 113.600,342.000 113.280,342.000 112.888 C 342.000 112.497,341.640 111.917,341.200 111.600 C 340.760 111.283,340.397 110.748,340.393 110.412 C 340.389 110.075,339.939 109.376,339.393 108.858 C 338.847 108.340,338.400 107.665,338.400 107.358 C 338.400 107.051,338.220 106.800,338.000 106.800 C 337.780 106.800,337.600 106.530,337.600 106.200 C 337.600 105.870,337.464 105.600,337.298 105.600 C 337.131 105.600,336.756 105.060,336.464 104.400 C 336.172 103.740,335.678 103.200,335.366 103.200 C 335.055 103.200,334.800 102.840,334.800 102.400 C 334.800 101.960,334.620 101.600,334.400 101.600 C 334.180 101.600,334.000 101.412,334.000 101.182 C 334.000 100.952,333.595 100.330,333.100 99.801 C 331.731 98.337,331.200 97.660,331.200 97.377 C 331.200 97.236,330.660 96.617,330.000 96.000 C 329.340 95.383,328.800 94.689,328.800 94.457 C 328.800 94.225,327.810 93.037,326.600 91.817 C 325.390 90.598,324.400 89.511,324.400 89.403 C 324.400 88.589,311.386 75.600,310.571 75.600 C 310.448 75.600,309.389 74.610,308.217 73.400 C 307.045 72.190,305.869 71.200,305.604 71.200 C 305.338 71.200,304.617 70.660,304.000 70.000 C 303.383 69.340,302.701 68.800,302.482 68.800 C 302.264 68.800,301.982 68.530,301.855 68.200 C 301.729 67.870,301.389 67.600,301.101 67.600 C 300.813 67.600,300.317 67.240,300.000 66.800 C 299.683 66.360,299.193 66.000,298.912 66.000 C 298.630 66.000,298.400 65.820,298.400 65.600 C 298.400 65.380,298.040 65.200,297.600 65.200 C 297.160 65.200,296.800 64.945,296.800 64.634 C 296.800 64.322,296.260 63.828,295.600 63.536 C 294.940 63.244,294.400 62.869,294.400 62.702 C 294.400 62.536,294.130 62.400,293.800 62.400 C 293.470 62.400,293.200 62.220,293.200 62.000 C 293.200 61.780,292.949 61.600,292.642 61.600 C 292.335 61.600,291.660 61.153,291.142 60.607 C 290.624 60.061,289.925 59.611,289.588 59.607 C 289.252 59.603,288.717 59.240,288.400 58.800 C 288.083 58.360,287.503 58.000,287.112 58.000 C 286.720 58.000,286.400 57.854,286.400 57.675 C 286.400 57.496,285.770 57.102,285.000 56.800 C 284.230 56.498,283.600 56.117,283.600 55.955 C 283.600 55.585,281.266 54.400,280.539 54.400 C 280.242 54.400,280.000 54.220,280.000 54.000 C 280.000 53.780,279.640 53.600,279.200 53.600 C 278.760 53.600,278.400 53.463,278.400 53.295 C 278.400 52.964,278.327 52.922,273.955 50.700 C 272.331 49.875,270.687 49.200,270.301 49.200 C 269.916 49.200,269.600 49.020,269.600 48.800 C 269.600 48.580,269.150 48.400,268.600 48.400 C 268.050 48.400,267.600 48.228,267.600 48.019 C 267.600 47.809,266.925 47.344,266.100 46.985 C 265.275 46.626,264.287 46.168,263.905 45.966 C 263.523 45.765,262.848 45.600,262.405 45.600 C 261.962 45.600,261.600 45.420,261.600 45.200 C 261.600 44.980,260.970 44.800,260.200 44.800 C 259.430 44.800,258.800 44.620,258.800 44.400 C 258.800 44.180,258.462 44.000,258.049 44.000 C 257.636 44.000,257.074 43.730,256.800 43.400 C 256.526 43.070,255.874 42.800,255.351 42.800 C 254.828 42.800,254.400 42.620,254.400 42.400 C 254.400 42.180,253.770 42.000,253.000 42.000 C 252.230 42.000,251.600 41.820,251.600 41.600 C 251.600 41.380,251.071 41.200,250.424 41.200 C 249.777 41.200,249.136 41.020,249.000 40.800 C 248.864 40.580,248.121 40.400,247.348 40.400 C 246.575 40.400,245.673 40.130,245.343 39.800 C 245.013 39.470,244.316 39.200,243.795 39.200 C 243.274 39.200,242.736 39.020,242.600 38.800 C 242.464 38.580,241.654 38.400,240.800 38.400 C 239.946 38.400,239.136 38.220,239.000 38.000 C 238.864 37.780,237.863 37.600,236.776 37.600 C 235.689 37.600,234.800 37.420,234.800 37.200 C 234.800 36.980,233.810 36.800,232.600 36.800 C 231.390 36.800,230.400 36.620,230.400 36.400 C 230.400 36.180,229.446 36.000,228.280 36.000 C 227.114 36.000,225.935 35.775,225.661 35.500 C 225.029 34.866,220.056 34.393,211.500 34.152 C 207.645 34.044,204.800 33.801,204.800 33.582 C 204.800 33.361,202.780 33.200,200.000 33.200 C 197.220 33.200,195.200 33.361,195.200 33.582 M212.332 53.604 C 221.130 54.523,223.419 54.861,230.200 56.242 C 233.363 56.886,234.498 57.166,240.437 58.762 C 243.249 59.517,249.539 61.590,251.400 62.374 C 251.840 62.559,253.910 63.392,256.000 64.224 C 280.610 74.027,304.247 93.043,320.439 116.064 C 322.397 118.849,324.000 121.214,324.000 121.321 C 324.000 121.427,325.005 123.108,326.234 125.057 C 328.367 128.440,334.923 141.454,335.979 144.400 C 336.671 146.330,337.020 147.233,337.528 148.400 C 338.039 149.575,340.469 157.005,341.192 159.600 C 341.467 160.590,341.841 161.850,342.021 162.400 C 342.836 164.879,344.699 174.266,345.554 180.200 C 348.203 198.579,346.380 223.674,341.168 240.600 C 339.680 245.430,337.600 251.499,336.781 253.400 C 336.591 253.840,336.150 254.920,335.800 255.800 C 332.574 263.913,327.864 272.671,321.802 281.828 C 319.741 284.941,317.811 287.738,317.513 288.044 C 317.215 288.350,315.902 289.950,314.596 291.600 C 295.790 315.357,265.356 335.538,239.200 341.598 C 238.430 341.777,236.810 342.189,235.600 342.514 C 232.331 343.394,224.440 344.981,221.200 345.411 C 214.741 346.267,212.352 346.433,203.200 346.656 C 191.350 346.945,185.331 346.539,175.000 344.754 C 171.813 344.204,163.659 342.435,162.400 342.021 C 161.850 341.841,160.590 341.472,159.600 341.201 C 148.375 338.137,135.743 332.674,125.200 326.324 C 123.770 325.463,122.240 324.543,121.800 324.279 C 104.301 313.795,84.902 293.996,74.107 275.600 C 40.483 218.303,47.767 147.778,92.200 100.428 C 106.966 84.692,128.175 69.902,144.400 64.026 C 146.326 63.329,147.232 62.979,148.400 62.481 C 149.496 62.013,157.483 59.369,159.400 58.840 C 160.060 58.657,161.320 58.310,162.200 58.067 C 169.335 56.098,176.582 54.794,184.800 53.998 C 187.330 53.754,189.580 53.488,189.800 53.408 C 190.718 53.075,208.770 53.232,212.332 53.604 M196.899 131.952 C 192.966 133.310,191.146 135.879,190.912 140.397 C 190.715 144.220,190.506 145.200,189.888 145.200 C 187.187 145.200,179.687 148.711,175.980 151.710 C 155.300 168.443,163.270 201.245,189.510 207.399 C 190.990 207.746,192.875 208.203,193.700 208.415 C 197.206 209.315,198.425 209.617,202.600 210.616 C 213.644 213.258,216.882 216.325,216.941 224.200 C 217.011 233.575,211.986 237.400,199.600 237.400 C 187.700 237.400,184.069 234.935,182.781 225.982 C 181.830 219.372,179.159 216.646,173.600 216.616 C 157.340 216.528,163.294 244.292,181.400 252.991 C 184.793 254.621,185.666 254.922,188.600 255.474 C 190.511 255.834,190.800 256.290,190.802 258.949 C 190.808 265.119,194.410 269.168,199.913 269.191 C 205.477 269.214,208.758 265.744,209.167 259.400 L 209.400 255.800 211.200 255.236 C 232.500 248.563,241.631 228.716,232.219 209.551 C 227.965 200.887,220.487 195.510,208.926 192.801 C 205.308 191.953,203.790 191.579,201.000 190.846 C 200.120 190.614,197.780 190.049,195.800 189.588 C 186.781 187.490,183.064 183.654,183.020 176.400 C 182.967 167.469,188.975 162.813,200.567 162.803 C 211.520 162.794,215.996 166.068,217.246 175.004 C 218.094 181.065,221.125 184.077,226.380 184.078 C 241.951 184.084,236.979 156.805,219.824 148.111 C 217.047 146.703,212.813 145.201,211.602 145.194 C 209.727 145.182,209.432 144.664,209.167 140.904 C 208.646 133.536,203.398 129.707,196.899 131.952 " stroke="none" fill="#444c54" fill-rule="evenodd"></path><path id="path1" d="M190.528 142.000 C 190.528 143.430,190.601 144.015,190.689 143.300 C 190.778 142.585,190.778 141.415,190.689 140.700 C 190.601 139.985,190.528 140.570,190.528 142.000 M209.324 141.800 C 209.326 143.120,209.401 143.612,209.490 142.893 C 209.579 142.174,209.577 141.094,209.486 140.493 C 209.395 139.892,209.322 140.480,209.324 141.800 M198.316 163.097 C 199.699 163.175,201.859 163.174,203.116 163.095 C 204.372 163.016,203.240 162.952,200.600 162.953 C 197.960 162.953,196.932 163.018,198.316 163.097 M228.396 203.692 C 235.085 211.638,237.750 224.272,234.613 233.163 C 234.182 234.385,234.157 234.800,234.517 234.800 C 234.782 234.800,250.493 250.294,269.431 269.231 L 303.864 303.663 306.478 300.931 C 307.915 299.429,309.701 297.480,310.445 296.600 C 311.190 295.720,311.899 294.910,312.021 294.800 C 312.143 294.690,313.307 293.250,314.607 291.600 C 315.907 289.950,317.215 288.350,317.513 288.044 C 319.682 285.819,327.423 273.212,331.172 265.800 C 333.727 260.747,334.476 259.129,335.800 255.800 C 336.150 254.920,336.591 253.840,336.781 253.400 C 337.600 251.499,339.680 245.430,341.168 240.600 C 343.972 231.493,346.112 218.161,346.655 206.400 L 346.905 201.000 286.517 201.000 L 226.130 201.000 228.396 203.692 " stroke="none" fill="#fb5474" fill-rule="evenodd"></path><path id="path2" d="M93.763 99.304 C 90.320 102.951,87.045 106.773,84.342 110.300 C 83.035 112.005,81.748 113.672,81.483 114.004 C 81.217 114.336,80.280 115.686,79.400 117.004 C 78.520 118.322,77.665 119.460,77.500 119.533 C 77.335 119.607,77.200 119.826,77.200 120.021 C 77.200 120.216,76.370 121.658,75.355 123.226 C 72.128 128.216,66.562 139.080,64.406 144.600 C 64.234 145.040,63.634 146.570,63.072 148.000 C 61.258 152.621,58.616 161.278,57.213 167.200 C 56.200 171.473,56.000 172.508,56.000 173.459 C 56.000 174.036,55.832 175.158,55.627 175.954 C 53.018 186.082,53.018 213.918,55.627 224.046 C 55.832 224.842,56.000 225.964,56.000 226.541 C 56.000 227.492,56.200 228.527,57.213 232.800 C 58.616 238.722,61.258 247.379,63.072 252.000 C 63.634 253.430,64.234 254.960,64.405 255.400 C 66.465 260.693,72.222 271.929,75.355 276.774 C 76.370 278.342,77.200 279.784,77.200 279.979 C 77.200 280.174,77.335 280.393,77.500 280.467 C 77.665 280.540,78.520 281.678,79.400 282.996 C 81.267 285.791,80.975 285.403,85.305 290.847 C 92.534 299.934,100.066 307.466,109.153 314.695 C 111.489 316.553,113.717 318.327,114.105 318.637 C 114.492 318.946,114.908 319.200,115.029 319.200 C 115.228 319.200,118.320 321.417,119.483 322.394 C 119.749 322.617,120.058 322.800,120.171 322.800 C 120.283 322.800,121.627 323.610,123.158 324.600 C 124.688 325.590,126.134 326.400,126.370 326.400 C 126.607 326.400,126.801 326.535,126.803 326.700 C 126.805 326.865,127.210 327.198,127.703 327.440 C 128.196 327.683,130.940 329.058,133.800 330.497 C 141.351 334.297,147.896 337.113,152.200 338.414 C 153.080 338.681,154.113 339.056,154.495 339.249 C 154.877 339.442,155.541 339.600,155.971 339.600 C 156.401 339.600,156.864 339.780,157.000 340.000 C 157.136 340.220,157.642 340.404,158.124 340.410 C 158.606 340.415,160.080 340.787,161.400 341.237 C 162.720 341.686,164.700 342.229,165.800 342.444 C 166.900 342.659,168.610 343.016,169.600 343.239 C 171.897 343.754,174.617 344.224,178.400 344.759 C 180.050 344.993,181.827 345.286,182.350 345.412 C 187.886 346.742,210.069 346.630,219.000 345.227 C 220.540 344.985,223.060 344.600,224.600 344.371 C 226.140 344.143,227.953 343.786,228.628 343.578 C 229.304 343.370,230.281 343.200,230.800 343.200 C 231.319 343.200,232.296 343.030,232.972 342.822 C 233.647 342.614,236.000 341.966,238.200 341.383 C 240.400 340.800,242.513 340.160,242.895 339.961 C 243.277 339.762,244.006 339.600,244.515 339.600 C 245.024 339.600,245.611 339.457,245.820 339.282 C 246.029 339.107,246.920 338.733,247.800 338.451 C 248.680 338.170,250.570 337.482,252.000 336.923 C 253.430 336.364,254.960 335.766,255.400 335.594 C 260.934 333.432,271.545 327.991,276.704 324.670 C 278.301 323.641,279.771 322.800,279.971 322.800 C 280.170 322.800,280.393 322.665,280.467 322.500 C 280.540 322.335,281.678 321.480,282.996 320.600 C 285.791 318.733,285.403 319.025,290.847 314.695 C 295.476 311.012,296.853 309.824,300.690 306.200 L 303.232 303.800 269.219 269.800 C 250.513 251.100,234.980 235.762,234.703 235.716 C 234.427 235.670,233.517 237.039,232.683 238.759 C 230.217 243.841,224.476 249.938,220.200 252.016 C 219.540 252.336,218.910 252.700,218.800 252.824 C 218.503 253.159,214.498 254.710,212.153 255.399 L 210.105 256.000 209.885 258.900 C 209.506 263.877,207.624 267.235,204.400 268.683 C 197.172 271.928,190.775 267.563,190.118 258.937 L 189.900 256.074 188.450 255.878 C 185.479 255.476,178.854 252.849,178.467 251.920 C 178.393 251.744,178.137 251.600,177.898 251.600 C 177.405 251.600,173.054 247.924,171.742 246.400 C 171.269 245.850,170.413 244.860,169.841 244.200 C 169.269 243.540,168.801 242.790,168.800 242.533 C 168.800 242.277,168.665 242.007,168.500 241.933 C 165.992 240.819,162.742 227.106,164.026 223.056 C 167.417 212.359,183.148 214.492,183.194 225.654 C 183.211 229.649,186.150 234.204,189.896 236.042 C 192.978 237.554,205.997 237.472,209.200 235.921 C 217.174 232.059,219.182 221.811,213.177 215.624 C 211.097 213.481,209.346 212.710,203.000 211.141 C 202.120 210.924,200.847 210.578,200.172 210.373 C 199.496 210.168,198.609 210.000,198.200 210.000 C 197.791 210.000,196.904 209.823,196.228 209.606 C 194.704 209.118,188.588 207.579,187.095 207.308 C 186.487 207.198,185.892 206.949,185.771 206.754 C 185.651 206.559,185.269 206.400,184.923 206.400 C 184.268 206.400,178.751 203.715,178.400 203.226 C 178.290 203.073,177.390 202.394,176.400 201.717 C 171.847 198.607,165.200 189.090,165.200 185.682 C 165.200 185.223,165.043 184.750,164.852 184.632 C 163.871 184.026,163.527 174.193,164.346 170.200 C 165.507 164.544,169.700 169.502,131.150 130.950 C 112.369 112.168,96.805 96.800,96.564 96.800 C 96.324 96.800,95.063 97.927,93.763 99.304 " stroke="none" fill="#fbfbfb" fill-rule="evenodd"></path><path id="path3" d="M188.000 53.665 C 179.057 54.573,167.283 56.597,162.800 57.995 C 162.250 58.167,160.990 58.530,160.000 58.801 C 147.118 62.338,132.457 69.003,120.055 76.962 C 118.435 78.002,116.905 79.023,116.655 79.232 C 116.405 79.440,114.220 81.075,111.800 82.865 C 103.308 89.145,93.290 98.656,86.590 106.800 C 83.484 110.575,76.000 120.837,76.000 121.321 C 76.000 121.427,74.995 123.108,73.766 125.057 C 71.389 128.828,65.120 141.399,63.621 145.400 C 63.127 146.720,62.529 148.205,62.294 148.699 C 62.058 149.194,61.962 149.696,62.080 149.814 C 62.199 149.932,62.696 148.987,63.187 147.714 C 64.993 143.024,65.515 141.837,68.257 136.200 C 71.053 130.451,73.088 126.731,75.355 123.226 C 76.370 121.658,77.200 120.216,77.200 120.021 C 77.200 119.826,77.335 119.607,77.500 119.533 C 77.665 119.460,78.520 118.322,79.400 117.004 C 80.280 115.686,81.217 114.336,81.483 114.004 C 81.748 113.672,83.035 112.005,84.342 110.300 C 88.663 104.664,95.782 96.800,96.564 96.800 C 96.805 96.800,112.369 112.168,131.150 130.950 L 165.299 165.101 165.038 166.650 C 164.400 170.433,164.448 170.797,165.219 168.023 C 168.257 157.094,176.771 148.563,187.600 145.598 C 188.590 145.327,189.625 145.043,189.900 144.965 C 190.224 144.875,190.400 144.037,190.400 142.590 C 190.400 135.650,194.291 131.122,200.160 131.230 C 205.890 131.337,209.322 135.491,209.706 142.787 C 209.795 144.472,209.880 144.594,211.200 144.911 C 225.998 148.465,235.620 159.784,235.760 173.800 C 235.892 187.043,219.320 188.644,217.225 175.591 C 215.586 165.380,212.018 162.963,199.044 163.275 C 192.971 163.421,192.480 163.493,190.515 164.514 C 179.460 170.262,180.917 185.692,192.800 188.713 C 193.790 188.965,197.300 189.814,200.600 190.601 C 203.900 191.387,207.230 192.192,208.000 192.390 C 208.770 192.588,210.300 192.969,211.400 193.236 C 214.075 193.887,218.349 195.558,219.662 196.466 C 220.246 196.870,220.837 197.200,220.976 197.200 C 221.115 197.200,222.404 198.101,223.840 199.201 L 226.451 201.203 286.526 201.101 L 346.600 201.000 346.737 198.000 C 347.073 190.654,344.330 170.253,342.005 162.800 C 341.833 162.250,341.470 160.990,341.199 160.000 C 327.787 111.144,286.400 70.545,237.200 57.983 C 224.293 54.687,211.978 53.156,199.200 53.258 C 194.910 53.292,189.870 53.475,188.000 53.665 M61.400 151.200 C 61.250 151.673,61.217 152.150,61.327 152.260 C 61.437 152.370,61.650 152.073,61.800 151.600 C 61.950 151.127,61.983 150.650,61.873 150.540 C 61.763 150.430,61.550 150.727,61.400 151.200 M60.090 155.274 C 59.654 156.664,59.075 158.610,58.802 159.600 C 58.530 160.590,58.130 161.886,57.914 162.480 C 57.697 163.073,57.594 163.781,57.684 164.052 C 57.774 164.322,58.264 163.026,58.771 161.172 C 59.279 159.317,60.050 156.752,60.484 155.470 C 60.918 154.189,61.185 153.052,61.078 152.944 C 60.970 152.837,60.526 153.885,60.090 155.274 M57.249 165.200 C 57.216 165.530,57.089 166.250,56.967 166.800 C 56.775 167.664,56.807 167.703,57.199 167.088 C 57.448 166.697,57.575 165.977,57.481 165.488 C 57.386 165.000,57.282 164.870,57.249 165.200 M56.071 170.600 C 54.605 178.365,53.994 182.471,54.041 184.246 C 54.063 185.101,54.332 184.000,54.637 181.800 C 54.943 179.600,55.375 177.032,55.596 176.094 C 55.818 175.156,56.000 173.878,56.000 173.254 C 56.000 172.630,56.194 171.563,56.431 170.883 C 56.668 170.203,56.803 169.232,56.731 168.724 C 56.659 168.216,56.362 169.060,56.071 170.600 M163.852 172.500 C 163.521 173.737,163.590 179.632,163.947 180.538 C 164.106 180.944,164.237 179.099,164.237 176.438 C 164.237 171.267,164.222 171.118,163.852 172.500 M164.446 182.876 C 164.421 183.688,164.580 184.464,164.800 184.600 C 165.020 184.736,165.200 185.201,165.200 185.632 C 165.200 186.516,167.414 191.600,167.799 191.600 C 167.935 191.600,167.970 191.465,167.877 191.300 C 167.671 190.938,166.442 188.114,166.005 187.000 C 165.663 186.127,164.917 183.472,164.657 182.200 C 164.566 181.760,164.472 182.064,164.446 182.876 M53.503 189.000 C 53.339 190.540,53.230 193.420,53.260 195.400 L 53.315 199.000 53.664 194.000 C 54.071 188.167,53.959 184.700,53.503 189.000 M168.000 192.186 C 168.000 193.439,173.738 199.920,176.400 201.674 L 178.200 202.859 176.764 201.642 C 173.741 199.080,172.427 197.709,170.400 195.000 C 167.921 191.689,168.000 191.781,168.000 192.186 M53.240 205.233 C 53.261 207.525,53.426 210.390,53.605 211.600 C 53.808 212.976,53.850 211.477,53.717 207.600 C 53.472 200.495,53.181 199.052,53.240 205.233 M178.400 203.166 C 178.400 203.515,184.350 206.493,184.717 206.328 C 184.873 206.257,183.515 205.458,181.700 204.550 C 179.885 203.643,178.400 203.020,178.400 203.166 M185.800 206.800 C 185.936 207.020,186.442 207.187,186.924 207.172 C 187.769 207.145,187.771 207.131,187.000 206.800 C 185.899 206.327,185.508 206.327,185.800 206.800 M188.400 207.600 C 188.730 207.813,189.360 207.978,189.800 207.966 L 190.600 207.944 189.800 207.600 C 188.604 207.086,187.605 207.086,188.400 207.600 M191.800 208.446 C 193.563 209.001,199.342 210.307,201.400 210.616 C 202.827 210.831,199.904 209.973,195.290 208.824 C 191.977 207.999,189.540 207.735,191.800 208.446 M203.200 211.200 C 203.530 211.413,204.250 211.573,204.800 211.554 L 205.800 211.520 204.800 211.200 C 203.258 210.706,202.436 210.706,203.200 211.200 M207.400 212.236 C 213.706 214.521,216.534 218.214,216.565 224.200 C 216.611 233.181,211.496 236.990,199.400 236.981 C 189.425 236.974,185.853 235.212,183.894 229.333 C 183.489 228.119,183.240 227.740,183.225 228.316 C 183.160 230.727,186.431 234.743,189.817 236.410 C 192.975 237.964,205.907 237.912,209.279 236.332 C 219.702 231.446,219.738 217.155,209.339 212.556 C 208.150 212.030,206.867 211.613,206.489 211.628 C 206.110 211.644,206.520 211.917,207.400 212.236 M54.050 215.833 C 54.022 216.732,54.169 218.442,54.376 219.633 C 54.583 220.825,54.966 223.150,55.227 224.800 C 55.488 226.450,55.948 228.700,56.249 229.800 C 56.832 231.931,56.801 231.552,55.991 226.600 C 55.811 225.500,55.452 223.160,55.192 221.400 C 54.933 219.640,54.581 217.300,54.410 216.200 L 54.100 214.200 54.050 215.833 M169.365 216.810 C 164.813 219.063,162.095 225.684,164.033 229.800 C 164.293 230.352,164.343 229.848,164.193 228.174 C 163.931 225.234,164.551 222.087,165.740 220.323 C 169.526 214.706,178.517 215.311,181.734 221.400 C 182.083 222.060,182.375 222.365,182.384 222.079 C 182.510 217.977,173.981 214.525,169.365 216.810 M182.645 224.800 C 182.790 226.010,182.974 227.075,183.054 227.167 C 183.407 227.570,183.146 223.738,182.784 223.200 C 182.503 222.782,182.461 223.267,182.645 224.800 M164.454 231.802 C 164.367 233.721,167.463 241.472,168.500 241.933 C 168.665 242.007,168.800 242.277,168.800 242.533 C 168.801 242.790,169.269 243.540,169.841 244.200 C 170.413 244.860,171.269 245.850,171.742 246.400 C 173.096 247.974,177.412 251.600,177.931 251.600 C 178.189 251.600,178.401 251.735,178.403 251.900 C 178.405 252.065,178.887 252.423,179.474 252.696 C 181.431 253.605,180.842 252.940,178.306 251.378 C 171.692 247.304,165.902 238.903,164.677 231.600 C 164.527 230.708,164.503 230.730,164.454 231.802 M56.846 232.800 C 56.865 233.130,57.024 233.850,57.200 234.400 L 57.520 235.400 57.554 234.400 C 57.573 233.850,57.413 233.130,57.200 232.800 C 56.855 232.267,56.816 232.267,56.846 232.800 M233.751 235.500 C 232.055 240.808,226.931 247.124,221.267 250.890 C 219.095 252.335,218.633 252.947,220.505 251.900 C 224.996 249.390,230.304 243.662,232.683 238.759 C 233.517 237.039,234.427 235.670,234.703 235.716 C 234.980 235.762,250.513 251.100,269.219 269.800 L 303.232 303.800 300.690 306.200 C 296.853 309.824,295.476 311.012,290.847 314.695 C 285.403 319.025,285.791 318.733,282.996 320.600 C 281.678 321.480,280.540 322.335,280.467 322.500 C 280.393 322.665,280.170 322.800,279.971 322.800 C 279.771 322.800,278.301 323.641,276.704 324.670 C 273.067 327.011,269.431 329.005,263.800 331.743 C 258.163 334.485,256.976 335.007,252.286 336.813 C 251.013 337.304,250.068 337.801,250.186 337.920 C 250.304 338.038,250.806 337.942,251.301 337.706 C 251.795 337.471,253.280 336.873,254.600 336.379 C 258.601 334.880,271.172 328.611,274.943 326.234 C 276.892 325.005,278.563 324.000,278.658 324.000 C 280.460 324.000,303.600 305.158,303.600 303.690 C 303.600 303.166,235.013 234.800,234.487 234.800 C 234.205 234.800,233.874 235.115,233.751 235.500 M57.641 236.081 C 57.618 236.456,57.761 237.176,57.958 237.681 C 58.155 238.187,58.537 239.410,58.807 240.400 C 59.802 244.049,60.887 247.246,61.070 247.063 C 61.174 246.960,60.888 245.733,60.435 244.337 C 59.981 242.942,59.177 240.360,58.646 238.600 C 58.116 236.840,57.663 235.707,57.641 236.081 M61.212 248.000 C 61.212 248.330,61.387 248.870,61.600 249.200 C 61.945 249.733,61.988 249.733,61.988 249.200 C 61.988 248.870,61.813 248.330,61.600 248.000 C 61.255 247.467,61.212 247.467,61.212 248.000 M62.000 250.405 C 62.000 250.628,62.166 251.123,62.368 251.505 C 62.570 251.887,63.137 253.280,63.628 254.600 C 71.093 274.685,88.189 297.968,106.800 313.391 C 111.576 317.350,119.611 323.089,119.585 322.524 C 119.573 322.249,118.168 321.227,115.293 319.400 C 114.292 318.764,113.654 318.275,109.153 314.695 C 100.066 307.466,92.534 299.934,85.305 290.847 C 80.975 285.403,81.267 285.791,79.400 282.996 C 78.520 281.678,77.665 280.540,77.500 280.467 C 77.335 280.393,77.200 280.174,77.200 279.979 C 77.200 279.784,76.370 278.342,75.355 276.774 C 72.518 272.388,69.241 266.140,65.718 258.400 C 64.628 256.006,64.505 255.710,63.193 252.300 C 62.340 250.085,62.000 249.545,62.000 250.405 M217.253 253.053 C 215.573 253.786,215.797 254.158,217.526 253.505 C 218.441 253.160,219.535 252.160,218.700 252.433 C 218.645 252.451,217.994 252.730,217.253 253.053 M181.400 253.468 C 182.230 254.267,187.347 256.000,188.876 256.000 C 189.854 256.000,189.904 256.117,190.115 258.900 C 190.537 264.445,193.749 269.200,197.073 269.200 C 197.449 269.200,196.867 268.743,195.779 268.184 C 192.417 266.457,190.849 263.704,190.818 259.474 C 190.797 256.737,190.297 255.600,189.114 255.600 C 188.247 255.600,186.713 255.167,183.800 254.099 C 182.920 253.776,181.930 253.415,181.600 253.297 C 181.208 253.157,181.139 253.216,181.400 253.468 M213.400 254.491 C 212.740 254.715,211.570 255.107,210.800 255.364 L 209.400 255.830 209.167 259.415 C 208.844 264.409,207.424 266.810,203.832 268.441 C 202.934 268.849,202.517 269.186,202.905 269.191 C 206.227 269.233,209.462 264.464,209.885 258.901 L 210.105 256.003 212.853 255.184 C 214.364 254.734,215.600 254.284,215.600 254.183 C 215.600 253.913,214.759 254.031,213.400 254.491 M198.900 269.600 C 199.505 269.782,200.495 269.782,201.100 269.600 C 201.990 269.332,201.781 269.269,200.000 269.269 C 198.219 269.269,198.010 269.332,198.900 269.600 M120.220 323.132 C 121.778 324.491,131.584 330.150,131.876 329.858 C 132.065 329.668,127.657 327.200,127.129 327.200 C 126.948 327.200,126.800 327.020,126.800 326.800 C 126.800 326.580,126.607 326.400,126.370 326.400 C 126.134 326.400,124.688 325.590,123.158 324.600 C 120.645 322.975,119.229 322.267,120.220 323.132 M132.400 330.189 C 132.400 330.538,142.452 335.281,142.689 335.044 C 142.793 334.940,142.005 334.461,140.939 333.979 C 139.873 333.497,137.650 332.449,136.000 331.651 C 132.165 329.796,132.400 329.891,132.400 330.189 M144.400 335.880 C 145.170 336.226,146.160 336.641,146.600 336.801 C 147.040 336.962,147.895 337.327,148.499 337.614 C 149.104 337.900,149.696 338.037,149.815 337.918 C 149.934 337.800,148.629 337.138,146.915 336.449 C 143.725 335.166,141.882 334.749,144.400 335.880 M150.800 338.400 C 151.130 338.613,151.670 338.788,152.000 338.788 C 152.533 338.788,152.533 338.745,152.000 338.400 C 151.670 338.187,151.130 338.012,150.800 338.012 C 150.267 338.012,150.267 338.055,150.800 338.400 M247.319 338.562 C 246.615 338.818,245.895 339.179,245.719 339.364 C 245.355 339.747,246.828 339.348,248.600 338.583 C 250.087 337.942,249.070 337.924,247.319 338.562 M152.833 338.949 C 153.057 339.148,157.356 340.571,159.600 341.188 C 160.590 341.460,161.813 341.845,162.319 342.042 C 162.824 342.239,163.544 342.386,163.919 342.368 C 164.847 342.325,159.224 340.427,158.124 340.412 C 157.642 340.405,157.136 340.220,157.000 340.000 C 156.864 339.780,156.324 339.600,155.800 339.600 C 155.276 339.600,154.736 339.420,154.600 339.200 C 154.464 338.980,153.973 338.800,153.510 338.800 C 153.046 338.800,152.742 338.867,152.833 338.949 M242.800 339.991 C 242.470 340.181,240.683 340.744,238.828 341.244 C 236.974 341.743,235.678 342.226,235.948 342.316 C 236.219 342.406,236.927 342.303,237.520 342.086 C 238.114 341.870,239.410 341.466,240.400 341.188 C 244.190 340.126,245.454 339.638,244.400 339.643 C 243.850 339.645,243.130 339.802,242.800 339.991 M165.800 342.800 C 166.984 343.309,168.387 343.309,167.600 342.800 C 167.270 342.587,166.550 342.422,166.000 342.434 C 165.084 342.454,165.067 342.485,165.800 342.800 M232.800 342.800 C 232.036 343.294,232.858 343.294,234.400 342.800 L 235.400 342.480 234.400 342.446 C 233.850 342.427,233.130 342.587,232.800 342.800 M170.400 343.779 C 171.610 344.084,173.950 344.545,175.600 344.803 C 177.250 345.061,179.464 345.436,180.520 345.636 C 181.576 345.836,183.196 345.978,184.120 345.950 L 185.800 345.900 183.800 345.590 C 182.700 345.419,180.360 345.067,178.600 344.808 C 176.840 344.548,174.500 344.175,173.400 343.979 C 169.453 343.273,168.021 343.178,170.400 343.779 M228.400 343.620 C 227.398 343.955,225.087 344.344,218.000 345.371 C 215.597 345.719,214.801 345.936,215.833 345.961 C 216.732 345.982,218.442 345.831,219.633 345.624 C 220.825 345.417,223.150 345.031,224.800 344.766 C 229.539 344.005,232.521 343.265,230.800 343.276 C 230.030 343.281,228.950 343.436,228.400 343.620 M188.400 346.395 C 190.617 346.723,199.076 346.930,198.767 346.648 C 198.675 346.565,195.810 346.401,192.400 346.283 C 188.523 346.150,187.024 346.192,188.400 346.395 M204.600 346.400 L 201.000 346.649 205.200 346.685 C 207.510 346.705,210.390 346.584,211.600 346.417 L 213.800 346.113 211.000 346.132 C 209.460 346.143,206.580 346.263,204.600 346.400 " stroke="none" fill="#fbf3b3" fill-rule="evenodd"></path></g></svg>